<svg width="107" height="57" viewBox="0 0 107 57" fill="none" xmlns="http://www.w3.org/2000/svg">
<rect width="107" height="30" fill="white"/>
<rect x="18" y="27" width="71.0847" height="30" fill="#FBDE02"/>
<path d="M27.7362 8.18182H30.6577V17.1555C30.6577 18.1631 30.417 19.0447 29.9357 19.8004C29.4589 20.5561 28.791 21.1454 27.9318 21.5682C27.0727 21.9865 26.0719 22.1957 24.9293 22.1957C23.7823 22.1957 22.7792 21.9865 21.9201 21.5682C21.061 21.1454 20.393 20.5561 19.9162 19.8004C19.4394 19.0447 19.201 18.1631 19.201 17.1555V8.18182H22.1225V16.9059C22.1225 17.4322 22.2372 17.9 22.4666 18.3093C22.7005 18.7186 23.0289 19.0402 23.4517 19.2741C23.8745 19.508 24.3671 19.625 24.9293 19.625C25.4961 19.625 25.9886 19.508 26.407 19.2741C26.8298 19.0402 27.1559 18.7186 27.3853 18.3093C27.6192 17.9 27.7362 17.4322 27.7362 16.9059V8.18182ZM35.6118 19.0178L35.6185 15.57H36.0368L39.3564 11.6364H42.6558L38.1959 16.8452H37.5145L35.6118 19.0178ZM33.0074 22V8.18182H35.8817V22H33.0074ZM39.4846 22L36.4349 17.4862L38.3511 15.4553L42.8515 22H39.4846ZM44.066 22V11.6364H46.8525V13.4446H46.9605C47.1494 12.8014 47.4665 12.3156 47.9118 11.9872C48.3572 11.6544 48.8699 11.4879 49.4502 11.4879C49.5941 11.4879 49.7493 11.4969 49.9157 11.5149C50.0822 11.5329 50.2284 11.5576 50.3543 11.5891V14.1396C50.2194 14.0991 50.0327 14.0631 49.7943 14.0316C49.5559 14.0001 49.3377 13.9844 49.1398 13.9844C48.717 13.9844 48.3392 14.0766 48.0063 14.261C47.6779 14.4409 47.4171 14.6928 47.2236 15.0167C47.0347 15.3406 46.9403 15.7139 46.9403 16.1367V22H44.066ZM54.4988 22.1957C53.8375 22.1957 53.2483 22.081 52.731 21.8516C52.2137 21.6177 51.8044 21.2736 51.503 20.8192C51.2061 20.3604 51.0577 19.7892 51.0577 19.1055C51.0577 18.5297 51.1634 18.0462 51.3748 17.6548C51.5862 17.2635 51.8741 16.9486 52.2385 16.7102C52.6028 16.4718 53.0166 16.2919 53.4799 16.1705C53.9477 16.049 54.438 15.9635 54.9508 15.9141C55.5536 15.8511 56.0394 15.7926 56.4082 15.7386C56.777 15.6802 57.0447 15.5947 57.2111 15.4822C57.3775 15.3698 57.4608 15.2034 57.4608 14.983V14.9425C57.4608 14.5152 57.3258 14.1845 57.0559 13.9506C56.7905 13.7167 56.4127 13.5998 55.9224 13.5998C55.4051 13.5998 54.9935 13.7145 54.6877 13.9439C54.3818 14.1688 54.1794 14.4522 54.0804 14.794L51.4221 14.5781C51.557 13.9484 51.8224 13.4041 52.2182 12.9453C52.6141 12.482 53.1246 12.1267 53.7498 11.8793C54.3796 11.6274 55.1083 11.5014 55.9359 11.5014C56.5117 11.5014 57.0627 11.5689 57.589 11.7038C58.1197 11.8388 58.5898 12.0479 58.9991 12.3313C59.4129 12.6147 59.7391 12.979 59.9775 13.4244C60.2158 13.8652 60.335 14.3937 60.335 15.0099V22H57.6092V20.5629H57.5282C57.3618 20.8867 57.1391 21.1723 56.8603 21.4197C56.5814 21.6626 56.2463 21.8538 55.8549 21.9933C55.4636 22.1282 55.0115 22.1957 54.4988 22.1957ZM55.3219 20.212C55.7447 20.212 56.1181 20.1288 56.4419 19.9624C56.7658 19.7914 57.0199 19.562 57.2044 19.2741C57.3888 18.9863 57.481 18.6602 57.481 18.2958V17.196C57.391 17.2545 57.2673 17.3085 57.1099 17.358C56.957 17.4029 56.7838 17.4457 56.5904 17.4862C56.397 17.5221 56.2035 17.5559 56.0101 17.5874C55.8167 17.6143 55.6413 17.6391 55.4838 17.6616C55.1465 17.7111 54.8519 17.7898 54.6 17.8977C54.3481 18.0057 54.1524 18.1519 54.013 18.3363C53.8735 18.5162 53.8038 18.7411 53.8038 19.011C53.8038 19.4023 53.9455 19.7015 54.2289 19.9084C54.5167 20.1108 54.8811 20.212 55.3219 20.212ZM62.565 22V11.6364H65.4393V22H62.565ZM64.0089 10.3004C63.5816 10.3004 63.215 10.1587 62.9091 9.87535C62.6077 9.58748 62.457 9.24337 62.457 8.84304C62.457 8.44721 62.6077 8.1076 62.9091 7.82422C63.215 7.53634 63.5816 7.3924 64.0089 7.3924C64.4362 7.3924 64.8005 7.53634 65.1019 7.82422C65.4078 8.1076 65.5607 8.44721 65.5607 8.84304C65.5607 9.24337 65.4078 9.58748 65.1019 9.87535C64.8005 10.1587 64.4362 10.3004 64.0089 10.3004ZM70.616 16.0085V22H67.7417V11.6364H70.4811V13.4648H70.6025C70.8319 12.8621 71.2165 12.3853 71.7563 12.0344C72.2961 11.6791 72.9506 11.5014 73.7197 11.5014C74.4394 11.5014 75.0669 11.6589 75.6022 11.9737C76.1375 12.2886 76.5535 12.7384 76.8504 13.3232C77.1473 13.9034 77.2957 14.5961 77.2957 15.4013V22H74.4214V15.9141C74.4259 15.2798 74.264 14.785 73.9356 14.4297C73.6073 14.0698 73.1552 13.8899 72.5795 13.8899C72.1926 13.8899 71.8508 13.9731 71.5539 14.1396C71.2615 14.306 71.0321 14.5489 70.8657 14.8683C70.7037 15.1831 70.6205 15.5632 70.616 16.0085ZM84.2841 22.2024C83.218 22.2024 82.3004 21.9865 81.5312 21.5547C80.7666 21.1184 80.1773 20.5021 79.7635 19.706C79.3497 18.9053 79.1428 17.9585 79.1428 16.8654C79.1428 15.7994 79.3497 14.8638 79.7635 14.0586C80.1773 13.2534 80.7598 12.6259 81.511 12.1761C82.2667 11.7263 83.1528 11.5014 84.1694 11.5014C84.8531 11.5014 85.4896 11.6116 86.0788 11.832C86.6726 12.0479 87.1899 12.3741 87.6307 12.8104C88.076 13.2467 88.4223 13.7955 88.6697 14.4567C88.9171 15.1134 89.0408 15.8826 89.0408 16.7642V17.5536H80.2898V15.7724H86.3352C86.3352 15.3585 86.2453 14.992 86.0653 14.6726C85.8854 14.3532 85.6358 14.1036 85.3164 13.9237C85.0015 13.7392 84.6349 13.647 84.2166 13.647C83.7803 13.647 83.3935 13.7482 83.0561 13.9506C82.7232 14.1486 82.4624 14.4162 82.2734 14.7536C82.0845 15.0864 81.9878 15.4575 81.9833 15.8668V17.5604C81.9833 18.0732 82.0778 18.5162 82.2667 18.8896C82.4601 19.2629 82.7322 19.5508 83.0831 19.7532C83.4339 19.9556 83.85 20.0568 84.3313 20.0568C84.6507 20.0568 84.9431 20.0118 85.2085 19.9219C85.4738 19.8319 85.701 19.697 85.8899 19.517C86.0788 19.3371 86.2228 19.1167 86.3217 18.8558L88.9801 19.0312C88.8452 19.67 88.5685 20.2277 88.1502 20.7045C87.7364 21.1768 87.2011 21.5457 86.5444 21.8111C85.8922 22.072 85.1387 22.2024 84.2841 22.2024Z" fill="black"/>
<path d="M39.9424 48.2467L37.1221 37.8831H40.0302L41.636 44.8461H41.7304L43.4037 37.8831H46.2578L47.9581 44.8057H48.0458L49.6246 37.8831H52.5259L49.7123 48.2467H46.6694L44.8881 41.7289H44.7599L42.9787 48.2467H39.9424ZM54.0592 48.2467V37.8831H56.9335V48.2467H54.0592ZM55.5031 36.5471C55.0758 36.5471 54.7092 36.4054 54.4033 36.1221C54.1019 35.8342 53.9512 35.4901 53.9512 35.0897C53.9512 34.6939 54.1019 34.3543 54.4033 34.0709C54.7092 33.783 55.0758 33.6391 55.5031 33.6391C55.9304 33.6391 56.2947 33.783 56.5961 34.0709C56.902 34.3543 57.0549 34.6939 57.0549 35.0897C57.0549 35.4901 56.902 35.8342 56.5961 36.1221C56.2947 36.4054 55.9304 36.5471 55.5031 36.5471ZM62.1102 42.2552V48.2467H59.2359V37.8831H61.9753V39.7115H62.0967C62.3261 39.1088 62.7107 38.632 63.2505 38.2811C63.7903 37.9258 64.4448 37.7481 65.2139 37.7481C65.9336 37.7481 66.5611 37.9056 67.0964 38.2204C67.6317 38.5353 68.0477 38.9851 68.3446 39.5699C68.6415 40.1501 68.7899 40.8428 68.7899 41.648V48.2467H65.9156V42.1608C65.9201 41.5265 65.7582 41.0317 65.4298 40.6764C65.1015 40.3165 64.6494 40.1366 64.0737 40.1366C63.6868 40.1366 63.345 40.2198 63.0481 40.3863C62.7557 40.5527 62.5263 40.7956 62.3599 41.115C62.1979 41.4298 62.1147 41.8099 62.1102 42.2552Z" fill="black"/>
</svg>
